<?xml version="1.0" encoding="UTF-8" ?>
<!DOCTYPE svg PUBLIC "-//W3C//DTD SVG 1.1//EN" "http://www.w3.org/Graphics/SVG/1.1/DTD/svg11.dtd">
<svg width="743pt" height="744pt" viewBox="0 0 743 744" version="1.1" xmlns="http://www.w3.org/2000/svg">
<g id="#1e1e1eff">
<path fill="#1e1e1e" opacity="1.00" d=" M 0.00 0.00 L 743.00 0.00 L 743.00 744.00 L 0.00 744.00 L 0.00 0.00 M 498.40 217.53 C 443.29 234.48 388.19 251.48 333.06 268.38 C 323.81 270.85 317.22 280.48 318.48 290.02 C 318.54 353.73 318.42 417.44 318.54 481.14 C 297.70 472.06 273.74 471.37 252.06 477.80 C 241.09 480.97 229.89 485.49 222.33 494.43 C 214.40 503.22 213.26 517.25 219.72 527.19 C 223.92 533.59 230.22 538.46 237.05 541.81 C 250.82 548.01 265.85 551.53 280.97 551.59 C 295.69 551.27 310.33 547.82 323.71 541.71 C 333.53 536.86 342.90 528.51 344.68 517.19 C 345.58 503.13 344.52 489.04 345.03 474.96 C 344.74 455.64 345.11 436.31 344.90 416.99 C 345.07 401.45 344.64 385.89 345.14 370.35 C 396.34 354.87 447.36 338.78 498.53 323.19 C 498.45 358.67 498.48 394.16 498.51 429.65 C 475.69 419.81 449.32 419.89 426.08 428.29 C 415.98 431.55 406.18 437.09 400.05 445.99 C 395.13 453.37 394.12 463.18 397.49 471.39 C 401.25 480.43 409.47 486.84 418.14 490.87 C 430.99 496.38 444.87 499.99 458.91 500.00 C 473.97 500.38 488.96 496.72 502.72 490.75 C 512.35 486.21 521.54 478.53 524.29 467.85 C 525.47 461.63 524.72 455.25 524.93 448.97 C 524.98 377.99 524.89 307.00 524.92 236.01 C 525.43 227.14 518.62 218.73 510.03 216.91 C 506.19 215.98 502.13 216.29 498.40 217.53 Z" />
</g>
<g id="#cfcfcfff">
<path fill="#cfcfcf" opacity="1.00" d=" M 498.40 217.53 C 502.13 216.29 506.19 215.98 510.03 216.91 C 518.62 218.73 525.43 227.14 524.92 236.01 C 524.89 307.00 524.98 377.99 524.93 448.97 C 524.72 455.25 525.47 461.63 524.29 467.85 C 521.54 478.53 512.35 486.21 502.72 490.75 C 488.96 496.72 473.97 500.38 458.91 500.00 C 444.87 499.99 430.99 496.38 418.14 490.87 C 409.47 486.84 401.25 480.43 397.49 471.39 C 394.12 463.18 395.13 453.37 400.05 445.99 C 406.18 437.09 415.98 431.55 426.08 428.29 C 449.32 419.89 475.69 419.81 498.51 429.65 C 498.48 394.16 498.45 358.67 498.53 323.19 C 447.36 338.78 396.34 354.87 345.14 370.35 C 344.64 385.89 345.07 401.45 344.90 416.99 C 345.11 436.31 344.74 455.64 345.03 474.96 C 344.52 489.04 345.58 503.13 344.68 517.19 C 342.90 528.51 333.53 536.86 323.71 541.71 C 310.33 547.82 295.69 551.27 280.97 551.59 C 265.85 551.53 250.82 548.01 237.05 541.81 C 230.22 538.46 223.92 533.59 219.72 527.19 C 213.26 517.25 214.40 503.22 222.33 494.43 C 229.89 485.49 241.09 480.97 252.06 477.80 C 273.74 471.37 297.70 472.06 318.54 481.14 C 318.42 417.44 318.54 353.73 318.48 290.02 C 317.22 280.48 323.81 270.85 333.06 268.38 C 388.19 251.48 443.29 234.48 498.40 217.53 Z" />
</g>
</svg>
