<?xml version="1.0" encoding="UTF-8" ?>
<!DOCTYPE svg PUBLIC "-//W3C//DTD SVG 1.1//EN" "http://www.w3.org/Graphics/SVG/1.1/DTD/svg11.dtd">
<svg width="532pt" height="544pt" viewBox="0 0 532 544" version="1.1" xmlns="http://www.w3.org/2000/svg">
<g id="#ffffffff">
</g>
<g id="#ffffff">
<path fill="#ffffff" opacity="1.00" d=" M 245.00 37.51 C 263.21 36.44 281.55 37.58 299.52 40.74 C 328.47 45.87 356.24 56.76 381.61 71.52 C 381.71 99.82 381.54 128.12 381.70 156.42 C 366.88 144.45 351.28 133.31 334.21 124.76 C 307.73 111.08 277.83 103.63 247.97 104.84 C 221.82 105.50 195.67 112.08 172.77 124.86 C 146.58 139.49 124.79 161.33 108.51 186.41 C 91.51 213.41 82.57 245.17 81.88 277.01 C 80.87 306.13 85.97 335.80 98.87 362.07 C 105.22 375.93 114.14 388.43 123.91 400.05 C 136.38 414.04 150.53 426.69 166.71 436.25 C 192.55 451.97 222.90 459.38 253.02 459.60 C 273.23 459.57 293.77 457.21 312.62 449.56 C 338.25 439.54 360.60 423.04 381.67 405.65 C 381.65 434.41 381.55 463.17 381.72 491.93 C 342.78 514.28 297.98 526.88 252.98 526.35 C 214.26 526.65 175.26 518.17 140.85 500.19 C 119.34 489.07 99.72 474.48 82.38 457.61 C 60.00 435.73 41.33 409.83 28.89 381.03 C 15.69 350.87 9.66 317.83 9.65 284.98 C 9.50 251.85 15.63 218.52 28.89 188.09 C 38.50 164.91 52.34 143.67 68.34 124.42 C 88.38 100.48 112.61 79.85 140.22 65.12 C 172.34 47.84 208.64 38.95 245.00 37.51 Z" />
<path fill="#ffffff" opacity="1.00" d=" M 426.55 89.71 C 434.96 88.44 443.51 89.22 451.99 89.00 C 459.16 89.04 467.44 88.60 473.01 93.99 C 478.45 98.67 479.07 106.30 478.99 112.99 C 479.01 226.66 479.00 340.33 479.00 454.00 C 478.91 459.89 479.06 466.41 475.34 471.37 C 472.14 476.01 466.60 478.51 461.07 478.75 C 452.38 479.24 443.66 478.92 434.97 478.98 C 428.80 479.01 421.93 478.28 417.47 473.51 C 412.42 468.77 411.97 461.44 412.01 454.97 C 411.99 365.31 412.01 275.64 412.00 185.98 C 412.11 159.99 411.78 133.99 412.17 108.00 C 411.96 99.51 417.93 91.06 426.55 89.71 Z" />
<path fill="#ffffff" opacity="1.00" d=" M 230.54 133.71 C 236.95 132.62 243.50 133.12 249.97 133.00 C 256.15 133.10 262.39 132.65 268.51 133.72 C 275.09 134.87 280.70 140.23 282.12 146.76 C 283.02 150.78 282.96 154.93 283.00 159.03 C 282.99 243.01 283.01 327.00 282.99 410.99 C 282.88 416.32 282.90 422.10 279.80 426.70 C 276.86 431.35 271.61 434.24 266.17 434.63 C 257.10 435.34 247.99 434.88 238.91 434.98 C 232.54 435.05 225.41 434.13 220.99 429.01 C 215.83 423.72 216.02 415.86 216.00 409.00 C 216.00 326.68 216.00 244.36 216.00 162.05 C 216.05 156.96 215.79 151.80 216.88 146.79 C 218.28 140.23 223.92 134.85 230.54 133.71 Z" />
<path fill="#ffffff" opacity="1.00" d=" M 330.51 171.72 C 336.94 170.62 343.50 171.12 350.00 171.00 C 356.18 171.10 362.43 170.65 368.56 171.73 C 375.14 172.90 380.74 178.27 382.13 184.81 C 383.08 189.13 382.97 193.59 383.00 197.99 C 382.98 256.65 383.03 315.32 382.98 373.98 C 383.05 380.37 382.17 387.54 377.04 391.99 C 371.47 397.41 363.17 396.95 355.99 397.00 C 347.95 396.84 339.87 397.40 331.86 396.51 C 325.25 395.83 319.27 391.06 317.28 384.71 C 315.93 380.27 316.05 375.56 316.00 370.98 C 316.01 312.31 315.99 253.65 316.01 194.98 C 316.07 189.17 316.20 182.74 320.10 178.03 C 322.65 174.76 326.42 172.45 330.51 171.72 Z" />
<path fill="#ffffff" opacity="1.00" d=" M 133.45 205.73 C 141.91 204.43 150.51 205.22 159.02 205.00 C 165.89 205.01 173.77 204.84 179.05 210.02 C 184.17 214.45 185.05 221.60 184.98 227.97 C 185.02 264.99 185.00 302.00 184.99 339.01 C 184.93 344.82 184.80 351.24 180.91 355.96 C 177.44 360.60 171.61 362.72 165.97 362.83 C 156.96 363.12 147.93 363.05 138.92 362.88 C 133.22 362.83 127.20 361.07 123.51 356.48 C 119.26 351.74 119.04 345.04 119.01 339.02 C 118.99 302.34 119.00 265.67 119.01 228.99 C 119.12 224.07 119.08 218.85 121.52 214.41 C 123.95 209.94 128.43 206.63 133.45 205.73 Z" />
</g>
</svg>
