<?xml version="1.0" encoding="UTF-8" ?>
<!DOCTYPE svg PUBLIC "-//W3C//DTD SVG 1.1//EN" "http://www.w3.org/Graphics/SVG/1.1/DTD/svg11.dtd">
<svg width="980pt" height="996pt" viewBox="0 0 980 996" version="1.1" xmlns="http://www.w3.org/2000/svg">
<g id="#ffffff">
<path fill="#ffffff" opacity="1.00" d=" M 375.66 109.42 C 416.09 109.36 456.52 109.40 496.95 109.40 C 496.98 188.16 496.98 266.92 496.95 345.68 C 456.52 345.67 416.08 345.73 375.65 345.66 C 375.64 266.91 375.63 188.17 375.66 109.42 Z" />
<path fill="#ffffff" opacity="1.00" d=" M 521.11 149.76 C 561.54 149.72 601.97 149.72 642.40 149.76 C 642.44 201.61 642.43 253.47 642.40 305.32 C 601.97 305.36 561.54 305.35 521.11 305.33 C 521.08 253.47 521.08 201.61 521.11 149.76 Z" />
<path fill="#ffffff" opacity="1.00" d=" M 664.14 179.60 C 690.22 179.57 716.30 179.56 742.38 179.60 C 742.42 263.42 742.42 347.25 742.38 431.07 C 716.30 431.11 690.22 431.10 664.14 431.08 C 664.11 347.25 664.11 263.43 664.14 179.60 Z" />
<path fill="#ffffff" opacity="1.00" d=" M 230.46 792.74 C 230.46 604.34 230.42 415.95 230.48 227.55 C 270.91 227.52 311.33 227.52 351.75 227.55 C 351.77 415.95 351.78 604.35 351.75 792.75 C 311.32 792.77 270.89 792.78 230.46 792.74 Z" />
<path fill="#ffffff" opacity="1.00" d=" M 142.50 368.85 C 163.92 368.81 185.33 368.81 206.75 368.85 C 206.78 463.05 206.78 557.25 206.74 651.45 C 185.33 651.44 163.92 651.50 142.52 651.45 C 142.45 557.25 142.48 463.05 142.50 368.85 Z" />
<path fill="#ffffff" opacity="1.00" d=" M 664.15 623.45 C 690.23 623.44 716.31 623.41 742.39 623.46 C 742.41 696.49 742.41 769.51 742.39 842.53 C 716.31 842.59 690.23 842.56 664.15 842.55 C 664.11 769.52 664.11 696.48 664.15 623.45 Z" />
<path fill="#ffffff" opacity="1.00" d=" M 375.66 674.63 C 416.09 674.59 456.52 674.60 496.95 674.63 C 496.98 753.38 496.98 832.14 496.95 910.90 C 456.52 910.91 416.09 910.92 375.66 910.89 C 375.64 832.14 375.62 753.38 375.66 674.63 Z" />
<path fill="#ffffff" opacity="1.00" d=" M 521.11 714.97 C 561.54 714.94 601.97 714.93 642.40 714.98 C 642.44 766.83 642.43 818.68 642.41 870.53 C 601.98 870.59 561.55 870.56 521.12 870.55 C 521.07 818.69 521.08 766.83 521.11 714.97 Z" />
</g>
</svg>
